<?xml version="1.0" standalone="no"?>
<!DOCTYPE svg PUBLIC "-//W3C//DTD SVG 20010904//EN"
 "http://www.w3.org/TR/2001/REC-SVG-20010904/DTD/svg10.dtd">
<svg version="1.0" xmlns="http://www.w3.org/2000/svg"
 width="200.000000pt" height="200.000000pt" viewBox="0 0 200.000000 200.000000"
 preserveAspectRatio="xMidYMid meet">
<metadata>
Created by potrace 1.11, written by Peter Selinger 2001-2013
</metadata>
<g transform="translate(0.000000,200.000000) scale(0.100000,-0.100000)"
fill="#000000" stroke="none">
<path d="M910 1758 c-296 -398 -483 -728 -523 -924 -14 -69 -14 -88 -2 -184
23 -175 144 -350 308 -444 48 -27 157 -69 157 -61 0 3 12 0 28 -6 41 -16 199
-13 268 5 86 22 130 42 206 92 134 89 224 227 264 405 17 75 -7 270 -37 304
-5 5 -9 15 -9 22 0 14 -75 169 -130 268 -78 141 -412 624 -438 633 -5 1 -46
-48 -92 -110z"/>
</g>
</svg>
